<?xml version="1.0" encoding="UTF-8" standalone="no"?> <!-- Created with Vectornator for iOS (http://vectornator.io/) --><!DOCTYPE svg PUBLIC "-//W3C//DTD SVG 1.1//EN" "http://www.w3.org/Graphics/SVG/1.1/DTD/svg11.dtd">
<svg height="100%" style="fill-rule:evenodd;clip-rule:evenodd;stroke-linecap:round;stroke-linejoin:round;" xmlns:xlink="http://www.w3.org/1999/xlink" xmlns="http://www.w3.org/2000/svg" xml:space="preserve" width="100%" xmlns:vectornator="http://vectornator.io" version="1.1" viewBox="0 0 187 42">
<metadata>
<vectornator:setting key="DimensionsVisible" value="1"/>
<vectornator:setting key="PencilOnly" value="0"/>
<vectornator:setting key="SnapToPoints" value="0"/>
<vectornator:setting key="OutlineMode" value="0"/>
<vectornator:setting key="CMYKEnabledKey" value="0"/>
<vectornator:setting key="RulersVisible" value="1"/>
<vectornator:setting key="SnapToEdges" value="0"/>
<vectornator:setting key="GuidesVisible" value="1"/>
<vectornator:setting key="DisplayWhiteBackground" value="0"/>
<vectornator:setting key="doHistoryDisabled" value="0"/>
<vectornator:setting key="SnapToGuides" value="1"/>
<vectornator:setting key="TimeLapseWatermarkDisabled" value="0"/>
<vectornator:setting key="Units" value="Pixels"/>
<vectornator:setting key="DynamicGuides" value="0"/>
<vectornator:setting key="IsolateActiveLayer" value="0"/>
<vectornator:setting key="SnapToGrid" value="0"/>
</metadata>
<defs/>
<g id="Layer 1" vectornator:layerName="Layer 1">
<g opacity="1">
<path stroke="#3ba7bb" vectornator:shadowColor="#000000" vectornator:shadowOffset="2" stroke-width="0.2" fill="#3ba7bb" stroke-linecap="round" vectornator:shadowAngle="0.703028" stroke-linejoin="miter" opacity="1" vectornator:shadowRadius="1" d="M13.9422+17.2538L13.9422+22.2372C13.9422+23.0018+13.9928+23.5687+14.0938+23.9379C14.1949+24.307+14.3861+24.6322+14.6673+24.9135C15.1771+25.3969+15.9154+25.7089+16.8822+25.8495L16.8822+26.2582L7.95688+26.2582L7.95688+25.8495C9.03793+25.6913+9.82016+25.3309+10.3036+24.7684C10.5233+24.5224+10.6749+24.2213+10.7584+23.8654C10.8419+23.5094+10.8836+22.9667+10.8836+22.2372L10.8836+17.8207L6.86264+11.9935L6.71762+11.7958C5.95297+10.6532+5.31357+9.86219+4.79941+9.42274C4.28525+8.98329+3.72495+8.7328+3.1185+8.67128L3.1185+8.26258L11.4637+8.26258L11.4637+8.67128L11.1869+8.68446C10.5013+8.71962+10.0311+8.82289+9.77621+8.99427C9.52133+9.16566+9.39389+9.4535+9.39389+9.8578C9.39389+10.2533+9.57846+10.7191+9.9476+11.2553L13.7445+16.6869L16.8031+12.9296C17.471+12.0946+17.805+11.3388+17.805+10.662C17.805+10.0468+17.5787+9.56996+17.1261+9.23158C16.6734+8.8932+16.0252+8.70643+15.1815+8.67128L15.1815+8.26258L22.2479+8.26258L22.2479+8.67128C21.7997+8.78553+21.38+8.95912+20.9889+9.19203C20.5977+9.42494+20.2154+9.71717+19.8419+10.0687C19.4684+10.4203+19.0531+10.8817+18.596+11.453L17.7655+12.4945L17.5677+12.7318L13.9422+17.2538ZM18.2533+10.6224C18.8773+9.86659+19.5409+9.22938+20.244+8.71083L17.014+8.71083C17.4622+8.92176+17.7809+9.17225+17.9698+9.46229C18.1588+9.75233+18.2533+10.139+18.2533+10.6224ZM10.1585+25.5858L14.0081+25.5858L13.494+25.2035C13.1952+24.9838+13.004+24.808+12.9205+24.6762C12.837+24.5443+12.7953+24.3466+12.7953+24.0829C12.7953+23.9423+12.7931+23.8478+12.7887+23.7994C12.7843+23.7511+12.7821+23.7006+12.7821+23.6478L12.7821+23.4237L12.7821+17.2538L8.87973+11.6903C8.36996+10.9432+8.11508+10.3412+8.11508+9.88417C8.11508+9.63807+8.181+9.42054+8.31284+9.23158C8.44467+9.04261+8.65121+8.86464+8.93246+8.69764L4.5687+8.69764C4.9642+8.93495+5.33554+9.24916+5.68271+9.64027C6.02988+10.0314+6.53305+10.7015+7.19223+11.6508L7.40317+11.954L11.3846+17.7284L11.3846+23.4237L11.3846+23.6478C11.3846+23.7885+11.3802+23.9335+11.3714+24.0829C11.3714+24.3554+11.3319+24.5553+11.2528+24.6828C11.1737+24.8102+10.9803+24.9838+10.6727+25.2035L10.1585+25.5858Z" vectornator:shadowOpacity="1"/>
<path stroke="#3ba7bb" vectornator:shadowColor="#000000" vectornator:shadowOffset="2" stroke-width="0.2" fill="#3ba7bb" stroke-linecap="round" vectornator:shadowAngle="0.703028" stroke-linejoin="miter" opacity="1" vectornator:shadowRadius="1" d="M23.1707+20.8529C23.1707+19.8334+23.4454+18.8864+23.9947+18.0119C24.544+17.1373+25.2867+16.4474+26.2227+15.942C27.1588+15.4367+28.1849+15.184+29.3011+15.184C30.1361+15.184+30.9227+15.3268+31.661+15.6124C32.3993+15.8981+33.0497+16.3024+33.6122+16.8253C34.1747+17.3483+34.6119+17.9591+34.9239+18.6578C35.2359+19.3566+35.3919+20.0883+35.3919+20.8529C35.3919+21.8637+35.1217+22.8085+34.5811+23.6874C34.0406+24.5663+33.3023+25.2584+32.3663+25.7638C31.4303+26.2692+30.4129+26.5219+29.3143+26.5219C28.1981+26.5219+27.1698+26.2714+26.2293+25.7704C25.2889+25.2694+24.544+24.5817+23.9947+23.7072C23.4454+22.8327+23.1707+21.8812+23.1707+20.8529ZM26.058+20.7738C26.058+21.5385+26.1349+22.2416+26.2887+22.8832C26.4425+23.5248+26.6644+24.0719+26.9544+24.5245C27.2445+24.9772+27.5894+25.3265+27.9893+25.5726C28.3893+25.8187+28.8265+25.9418+29.3011+25.9418C29.7669+25.9418+30.202+25.8165+30.6063+25.5661C31.0106+25.3156+31.3534+24.9684+31.6346+24.5245C31.9159+24.0807+32.1334+23.5336+32.2872+22.8832C32.441+22.2328+32.5179+21.5297+32.5179+20.7738C32.5179+19.7631+32.3839+18.8666+32.1158+18.0844C31.8477+17.3021+31.4698+16.6957+30.982+16.265C30.4942+15.8344+29.9295+15.619+29.2879+15.619C28.3123+15.619+27.5301+16.0936+26.9413+17.0429C26.3524+17.9921+26.058+19.2357+26.058+20.7738ZM27.0731+25.7704C26.6512+25.4364+26.3634+25.1881+26.2096+25.0255C26.0558+24.8629+25.891+24.6454+25.7152+24.3729C25.1527+23.4589+24.8714+22.2811+24.8714+20.8397C24.8714+18.4491+25.6844+16.7704+27.3104+15.8036C26.5721+16.0761+25.9239+16.4716+25.3658+16.9901C24.8077+17.5087+24.377+18.0975+24.0738+18.7567C23.7706+19.4159+23.619+20.1146+23.619+20.8529C23.619+21.5736+23.7684+22.268+24.0672+22.9359C24.3661+23.6039+24.7835+24.1796+25.3197+24.663C25.6097+24.9003+25.8426+25.0761+26.0184+25.1903C26.1942+25.3046+26.5457+25.4979+27.0731+25.7704ZM30.6327+25.9813C31.7928+25.4716+32.6783+24.775+33.2892+23.8917C33.9+23.0084+34.2054+21.9955+34.2054+20.8529C34.2054+19.684+33.9088+18.6425+33.3155+17.7284C32.7223+16.8143+31.9334+16.1683+30.9491+15.7904C32.2938+16.7748+32.9662+18.4491+32.9662+20.8134C32.9662+22.0087+32.797+23.0062+32.4586+23.806C32.1202+24.6058+31.5819+25.2782+30.8436+25.8231L30.6327+25.9813Z" vectornator:shadowOpacity="1"/>
<path stroke="#3ba7bb" vectornator:shadowColor="#000000" vectornator:shadowOffset="2" stroke-width="0.2" fill="#3ba7bb" stroke-linecap="round" vectornator:shadowAngle="0.703028" stroke-linejoin="miter" opacity="1" vectornator:shadowRadius="1" d="M45.7674+23.9247C45.0204+24.8563+44.304+25.5265+43.6185+25.9352C42.933+26.3439+42.1903+26.5482+41.3905+26.5482C40.6873+26.5482+40.0567+26.3922+39.4986+26.0802C38.9405+25.7682+38.5033+25.3397+38.1869+24.7948C37.8617+24.2323+37.6991+23.4237+37.6991+22.369L37.6991+18.1898C37.6991+17.4603+37.5892+16.9374+37.3695+16.621C37.1497+16.3046+36.7455+16.1024+36.1566+16.0145L36.1566+15.7245L40.4017+15.2367L40.4017+22.4481C40.4017+23.4149+40.4632+24.0785+40.5863+24.4389C40.7181+24.8432+40.9268+25.1574+41.2125+25.3815C41.4981+25.6056+41.8299+25.7177+42.2079+25.7177C42.7352+25.7177+43.2516+25.5507+43.7569+25.2167C44.2623+24.8827+44.8622+24.307+45.5565+23.4896L45.7674+23.2391L45.7674+18.1898C45.7674+17.4603+45.6576+16.9374+45.4378+16.621C45.2181+16.3046+44.8138+16.1024+44.2249+16.0145L44.2249+15.7245L48.4701+15.2367L48.4701+23.7269C48.4701+24.4564+48.5777+24.975+48.7931+25.2826C49.0084+25.5902+49.4149+25.7968+50.0125+25.9022L50.0125+26.2582L45.7674+26.2582L45.7674+23.9247ZM46.2157+25.6781L48.1668+25.6781L47.8636+25.4408C47.8636+25.4408+47.857+25.4342+47.8438+25.421C47.8307+25.4078+47.8197+25.4013+47.8109+25.4013L47.6395+25.2694C47.5077+25.1376+47.4417+24.9706+47.4417+24.7684L47.4417+24.5048L47.4286+24.3729L47.4286+15.7904L45.2664+16.0277L45.7938+16.3969C45.8026+16.3969+45.8092+16.3991+45.8136+16.4035C45.818+16.4078+45.8289+16.4188+45.8465+16.4364L46.0179+16.5682C46.097+16.621+46.1497+16.7001+46.1761+16.8056C46.2025+16.911+46.2157+17.1307+46.2157+17.4647L46.2157+25.6781ZM39.3602+15.7772L37.1981+16.0277L37.7254+16.3969C37.7342+16.3969+37.7408+16.3991+37.7452+16.4035C37.7496+16.4078+37.7606+16.4188+37.7782+16.4364L37.9496+16.5682C38.0287+16.621+38.0814+16.7001+38.1078+16.8056C38.1341+16.911+38.1473+17.1307+38.1473+17.4647L38.1473+22.3822C38.1473+23.0062+38.2044+23.5226+38.3187+23.9313C38.433+24.34+38.6175+24.7069+38.8724+25.0321C39.1976+25.41+39.5514+25.7001+39.9337+25.9022C40.316+26.1044+40.6873+26.2055+41.0477+26.2055C41.0741+26.2055+41.2015+26.1967+41.43+26.1791C40.9027+26.1+40.4918+25.9308+40.1974+25.6715C39.9029+25.4122+39.6898+25.0299+39.558+24.5245C39.4261+24.0192+39.3602+23.3314+39.3602+22.4613L39.3602+15.7772Z" vectornator:shadowOpacity="1"/>
<path stroke="#3ba7bb" vectornator:shadowColor="#000000" vectornator:shadowOffset="2" stroke-width="0.2" fill="#3ba7bb" stroke-linecap="round" vectornator:shadowAngle="0.703028" stroke-linejoin="miter" opacity="1" vectornator:shadowRadius="1" d="M55.4442+17.8075C55.9539+16.8231+56.4132+16.1354+56.8219+15.7443C57.2306+15.3532+57.703+15.1576+58.2391+15.1576C58.9071+15.1576+59.4652+15.4213+59.9134+15.9486C60.3617+16.476+60.5858+17.1307+60.5858+17.913C60.5858+18.414+60.4825+18.8007+60.276+19.0731C60.0694+19.3456+59.7772+19.4818+59.3993+19.4818C59.0741+19.4818+58.8104+19.372+58.6082+19.1522C58.4061+18.9325+58.305+18.6513+58.305+18.3085C58.305+18.1503+58.327+17.9745+58.3709+17.7811L58.4896+17.2802C58.5599+16.9725+58.5951+16.7001+58.5951+16.4628C58.5951+16.2255+58.5313+16.0387+58.4039+15.9025C58.2765+15.7662+58.1073+15.6981+57.8963+15.6981C57.6502+15.6981+57.4085+15.7926+57.1712+15.9816C56.9339+16.1705+56.6812+16.4738+56.4132+16.8912C56.1451+17.3087+55.8221+17.891+55.4442+18.6381L55.4442+23.7269C55.4442+24.4564+55.5738+24.975+55.8331+25.2826C56.0924+25.5902+56.5692+25.7968+57.2635+25.9022L57.2635+26.2582L51.1991+26.2582L51.1991+25.9022C51.7967+25.7968+52.2054+25.5924+52.4251+25.2892C52.6449+24.986+52.7547+24.4652+52.7547+23.7269L52.7547+18.1898C52.7547+17.4515+52.6427+16.9264+52.4185+16.6144C52.1944+16.3024+51.7879+16.1024+51.1991+16.0145L51.1991+15.7245L55.4442+15.2367L55.4442+17.8075ZM52.5174+25.6781L55.1541+25.6781L54.8377+25.4408C54.8202+25.4232+54.8026+25.41+54.785+25.4013L54.6136+25.2694C54.4906+25.1464+54.4247+24.9794+54.4159+24.7684L54.4159+24.5048L54.4159+24.3729L54.4159+15.7904L52.2538+16.0277L52.7679+16.3969C52.7767+16.3969+52.7943+16.41+52.8206+16.4364L52.992+16.5682C53.0799+16.6298+53.1371+16.7199+53.1634+16.8385C53.1898+16.9572+53.203+17.1659+53.203+17.4647L53.203+24.3729C53.203+24.7333+53.1854+24.9574+53.1502+25.0453C53.1151+25.1332+53.0096+25.2518+52.8338+25.4013C52.8338+25.4013+52.8272+25.4057+52.8141+25.4144C52.8009+25.4232+52.7943+25.432+52.7943+25.4408L52.5174+25.6781ZM58.661+15.7377C58.8631+16.0101+58.9642+16.3046+58.9642+16.621C58.9642+16.8934+58.9159+17.2274+58.8192+17.6229C58.7313+18.0009+58.6873+18.2514+58.6873+18.3744C58.6873+18.7435+58.8368+18.9281+59.1356+18.9281C59.5135+18.9281+59.7025+18.5722+59.7025+17.8602C59.7025+16.955+59.3553+16.2474+58.661+15.7377Z" vectornator:shadowOpacity="1"/>
<path stroke="#3ba7bb" vectornator:shadowColor="#000000" vectornator:shadowOffset="2" stroke-width="0.2" fill="#3ba7bb" stroke-linecap="round" vectornator:shadowAngle="0.703028" stroke-linejoin="miter" opacity="1" vectornator:shadowRadius="1" d="M81.6268+19.6005L74.8372+19.6005L74.099+21.288C73.7474+22.1141+73.5716+22.7953+73.5716+23.3314C73.5716+23.7885+73.6749+24.1818+73.8814+24.5114C74.088+24.841+74.3956+25.1134+74.8043+25.3287C75.213+25.5441+75.7513+25.7177+76.4193+25.8495L76.4193+26.2582L69.577+26.2582L69.577+25.8627C70.4032+25.5814+71.1129+25.0892+71.7061+24.3861C72.2994+23.683+72.9256+22.5888+73.5848+21.1034L79.412+7.91981L79.7547+7.91981L86.096+22.1713C86.1136+22.1801+86.129+22.2042+86.1422+22.2438C86.1554+22.2833+86.1729+22.3251+86.1949+22.369C86.2169+22.413+86.2411+22.4613+86.2674+22.514L86.8475+23.7138C87.1639+24.3554+87.5243+24.8388+87.9286+25.164C88.3329+25.4891+88.8382+25.7177+89.4447+25.8495L89.4447+26.2582L81.0335+26.2582L81.0335+25.8495C81.7455+25.7968+82.2552+25.7133+82.5628+25.599C83.1956+25.3617+83.5121+24.9486+83.5121+24.3598C83.5121+24.0697+83.3714+23.5951+83.0902+22.9359L81.6268+19.6005ZM81.3763+19.0468L78.1991+11.8881L75.0746+19.0468L81.3763+19.0468ZM78.4759+11.3212L83.5516+22.7514L83.6834+23.0414C83.9559+23.6303+84.0921+24.0609+84.0921+24.3334C84.0921+24.7113+83.8768+25.1288+83.4461+25.5858L86.9266+25.5858C86.5311+25.2167+86.1883+24.7926+85.8983+24.3136C85.6082+23.8346+85.2699+23.1688+84.8831+22.3163L79.2274+9.59413L78.4759+11.3212ZM73.8617+25.5858C73.5628+25.2255+73.3519+24.9025+73.2289+24.6168C73.1058+24.3312+73.0443+24.0214+73.0443+23.6874C73.0443+23.538+73.0487+23.4193+73.0575+23.3314C72.785+23.8588+72.5169+24.2828+72.2533+24.6036C71.9896+24.9244+71.6336+25.2518+71.1854+25.5858L73.8617+25.5858Z" vectornator:shadowOpacity="1"/>
<path stroke="#3ba7bb" vectornator:shadowColor="#000000" vectornator:shadowOffset="2" stroke-width="0.2" fill="#3ba7bb" stroke-linecap="round" vectornator:shadowAngle="0.703028" stroke-linejoin="miter" opacity="1" vectornator:shadowRadius="1" d="M94.5204+16.7924C95.162+16.2474+95.7838+15.8475+96.3858+15.5927C96.9879+15.3378+97.6317+15.2103+98.3172+15.2103C99.0643+15.2103+99.7477+15.34+100.367+15.5993C100.987+15.8585+101.532+16.2233+102.002+16.6935C102.472+17.1637+102.837+17.7086+103.096+18.3283C103.356+18.9479+103.485+19.6356+103.485+20.3915C103.485+21.2177+103.336+21.9977+103.037+22.7316C102.738+23.4655+102.316+24.1224+101.771+24.7025C101.226+25.2826+100.611+25.7308+99.9256+26.0473C99.2401+26.3637+98.5106+26.5219+97.7372+26.5219C96.6297+26.5219+95.5575+26.122+94.5204+25.3222L94.5204+30.3847C94.5204+30.8681+94.5753+31.257+94.6852+31.5514C94.795+31.8458+94.9818+32.07+95.2455+32.2238C95.5091+32.3776+95.8739+32.4896+96.3397+32.5599L96.3397+32.9159L90.2752+32.9159L90.2752+32.5599C90.8817+32.4545+91.2926+32.2479+91.5079+31.9403C91.7232+31.6327+91.8309+31.1141+91.8309+30.3847L91.8309+18.1898C91.8309+17.4603+91.721+16.9396+91.5013+16.6276C91.2816+16.3156+90.8729+16.1112+90.2752+16.0145L90.2752+15.7245L94.5204+15.2367L94.5204+16.7924ZM94.5204+24.3598L94.5995+24.4257C95.162+24.9266+95.6761+25.298+96.1419+25.5397C96.6078+25.7814+97.0648+25.9022+97.513+25.9022C98.1458+25.9022+98.6996+25.7045+99.1742+25.309C99.6488+24.9135+100.016+24.3422+100.275+23.5951C100.534+22.848+100.664+21.9779+100.664+20.9848C100.664+20.2289+100.591+19.5368+100.446+18.9083C100.301+18.2799+100.09+17.7306+99.8136+17.2604C99.5367+16.7902+99.2071+16.4276+98.8248+16.1727C98.4425+15.9179+98.0272+15.7904+97.5789+15.7904C97.1307+15.7904+96.6275+15.9552+96.0694+16.2848C95.5113+16.6144+94.995+17.056+94.5204+17.6098L94.5204+24.3598ZM91.5936+32.3358L94.2303+32.3358L93.9139+32.0985C93.9315+32.0985+93.9139+32.0853+93.8612+32.059L93.703+31.9271C93.5711+31.8041+93.5052+31.6371+93.5052+31.4262L93.492+31.1625L93.492+31.0307L93.492+15.7904L91.3299+16.0277L91.8441+16.3969C91.8529+16.3969+91.8705+16.41+91.8968+16.4364L92.0682+16.5682C92.1561+16.6298+92.2132+16.7111+92.2396+16.8121C92.266+16.9132+92.2791+17.1307+92.2791+17.4647L92.2791+31.0307C92.2791+31.391+92.2638+31.6151+92.233+31.703C92.2022+31.7909+92.099+31.9096+91.9232+32.059C91.8968+32.0853+91.8792+32.0985+91.8705+32.0985L91.5936+32.3358ZM98.8578+15.6454C99.6927+16.1903+100.297+16.8825+100.671+17.7218C101.044+18.5612+101.231+19.6356+101.231+20.9452C101.231+21.9999+101.103+22.8876+100.848+23.6083C100.594+24.329+100.172+24.9838+99.5829+25.5726C100.172+25.3002+100.684+24.9135+101.119+24.4125C101.554+23.9115+101.888+23.3402+102.121+22.6986C102.354+22.057+102.47+21.3539+102.47+20.5892C102.47+19.2973+102.138+18.1964+101.475+17.2868C100.811+16.3771+99.9388+15.83+98.8578+15.6454Z" vectornator:shadowOpacity="1"/>
<path stroke="#3ba7bb" vectornator:shadowColor="#000000" vectornator:shadowOffset="2" stroke-width="0.2" fill="#3ba7bb" stroke-linecap="round" vectornator:shadowAngle="0.703028" stroke-linejoin="miter" opacity="1" vectornator:shadowRadius="1" d="M108.93+16.7924C109.572+16.2474+110.193+15.8475+110.796+15.5927C111.398+15.3378+112.041+15.2103+112.727+15.2103C113.474+15.2103+114.157+15.34+114.777+15.5993C115.397+15.8585+115.941+16.2233+116.412+16.6935C116.882+17.1637+117.247+17.7086+117.506+18.3283C117.765+18.9479+117.895+19.6356+117.895+20.3915C117.895+21.2177+117.745+21.9977+117.447+22.7316C117.148+23.4655+116.726+24.1224+116.181+24.7025C115.636+25.2826+115.021+25.7308+114.335+26.0473C113.65+26.3637+112.92+26.5219+112.147+26.5219C111.039+26.5219+109.967+26.122+108.93+25.3222L108.93+30.3847C108.93+30.8681+108.985+31.257+109.095+31.5514C109.205+31.8458+109.391+32.07+109.655+32.2238C109.919+32.3776+110.284+32.4896+110.749+32.5599L110.749+32.9159L104.685+32.9159L104.685+32.5599C105.291+32.4545+105.702+32.2479+105.918+31.9403C106.133+31.6327+106.241+31.1141+106.241+30.3847L106.241+18.1898C106.241+17.4603+106.131+16.9396+105.911+16.6276C105.691+16.3156+105.283+16.1112+104.685+16.0145L104.685+15.7245L108.93+15.2367L108.93+16.7924ZM108.93+24.3598L109.009+24.4257C109.572+24.9266+110.086+25.298+110.552+25.5397C111.017+25.7814+111.474+25.9022+111.923+25.9022C112.556+25.9022+113.109+25.7045+113.584+25.309C114.058+24.9135+114.425+24.3422+114.685+23.5951C114.944+22.848+115.074+21.9779+115.074+20.9848C115.074+20.2289+115.001+19.5368+114.856+18.9083C114.711+18.2799+114.5+17.7306+114.223+17.2604C113.946+16.7902+113.617+16.4276+113.234+16.1727C112.852+15.9179+112.437+15.7904+111.989+15.7904C111.54+15.7904+111.037+15.9552+110.479+16.2848C109.921+16.6144+109.405+17.056+108.93+17.6098L108.93+24.3598ZM106.003+32.3358L108.64+32.3358L108.324+32.0985C108.341+32.0985+108.324+32.0853+108.271+32.059L108.113+31.9271C107.981+31.8041+107.915+31.6371+107.915+31.4262L107.902+31.1625L107.902+31.0307L107.902+15.7904L105.74+16.0277L106.254+16.3969C106.263+16.3969+106.28+16.41+106.306+16.4364L106.478+16.5682C106.566+16.6298+106.623+16.7111+106.649+16.8121C106.676+16.9132+106.689+17.1307+106.689+17.4647L106.689+31.0307C106.689+31.391+106.673+31.6151+106.643+31.703C106.612+31.7909+106.509+31.9096+106.333+32.059C106.306+32.0853+106.289+32.0985+106.28+32.0985L106.003+32.3358ZM113.267+15.6454C114.102+16.1903+114.707+16.8825+115.08+17.7218C115.454+18.5612+115.64+19.6356+115.64+20.9452C115.64+21.9999+115.513+22.8876+115.258+23.6083C115.003+24.329+114.581+24.9838+113.993+25.5726C114.581+25.3002+115.093+24.9135+115.528+24.4125C115.963+23.9115+116.297+23.3402+116.53+22.6986C116.763+22.057+116.88+21.3539+116.88+20.5892C116.88+19.2973+116.548+18.1964+115.884+17.2868C115.221+16.3771+114.348+15.83+113.267+15.6454Z" vectornator:shadowOpacity="1"/>
<path stroke="#3ba7bb" vectornator:shadowColor="#000000" vectornator:shadowOffset="2" stroke-width="0.2" fill="#3ba7bb" stroke-linecap="round" vectornator:shadowAngle="0.703028" stroke-linejoin="miter" opacity="1" vectornator:shadowRadius="1" d="M136.642+8.26258L136.642+8.67128C135.587+8.82948+134.827+9.18983+134.361+9.75233C134.15+10.0072+134.003+10.3236+133.92+10.7015C133.836+11.0795+133.794+11.6068+133.794+12.2836L133.794+22.3427C133.794+23.0018+133.832+23.5204+133.906+23.8983C133.981+24.2763+134.115+24.5883+134.308+24.8344C134.704+25.3353+135.455+25.5858+136.563+25.5858L136.84+25.5858C137.429+25.5858+138.004+25.4957+138.567+25.3156C139.129+25.1354+139.703+24.8453+140.287+24.4454C140.872+24.0455+141.465+23.5424+142.067+22.9359C142.669+22.3295+143.286+21.6132+143.919+20.787L144.328+20.787L142.746+26.2582L128.165+26.2582L128.165+25.8495C129.114+25.6913+129.804+25.3265+130.235+24.7553C130.569+24.3334+130.736+23.494+130.736+22.2372L130.736+12.2836C130.736+11.4838+130.692+10.9037+130.604+10.5433C130.516+10.183+130.353+9.87538+130.116+9.62049C129.677+9.12831+129.026+8.8119+128.165+8.67128L128.165+8.26258L136.642+8.26258ZM141.81+25.5858L142.522+23.1337C141.66+24.162+140.637+24.9794+139.45+25.5858L141.81+25.5858ZM130.011+25.5858L133.86+25.5858L133.346+25.2035C133.047+24.9838+132.856+24.808+132.773+24.6762C132.689+24.5443+132.647+24.3466+132.647+24.0829C132.647+23.9423+132.645+23.8478+132.641+23.7994C132.636+23.7511+132.634+23.7006+132.634+23.6478L132.634+23.4237L132.634+11.0971L132.634+10.8729C132.634+10.8202+132.636+10.7675+132.641+10.7147C132.645+10.662+132.647+10.5697+132.647+10.4379C132.647+10.1742+132.693+9.96986+132.786+9.82484C132.878+9.67982+133.065+9.51063+133.346+9.31727L134.098+8.76356L129.786+8.76356L130.525+9.31727C130.832+9.537+131.026+9.70839+131.105+9.83143C131.184+9.95448+131.223+10.1566+131.223+10.4379C131.232+10.5873+131.237+10.7323+131.237+10.8729L131.237+11.0971L131.237+23.4237L131.237+23.6478C131.237+23.7885+131.232+23.9335+131.223+24.0829C131.223+24.3554+131.184+24.5553+131.105+24.6828C131.026+24.8102+130.832+24.9838+130.525+25.2035L130.011+25.5858Z" vectornator:shadowOpacity="1"/>
<path stroke="#3ba7bb" vectornator:shadowColor="#000000" vectornator:shadowOffset="2" stroke-width="0.2" fill="#3ba7bb" stroke-linecap="round" vectornator:shadowAngle="0.703028" stroke-linejoin="miter" opacity="1" vectornator:shadowRadius="1" d="M144.539+20.8529C144.539+19.8334+144.814+18.8864+145.363+18.0119C145.912+17.1373+146.655+16.4474+147.591+15.942C148.527+15.4367+149.553+15.184+150.669+15.184C151.504+15.184+152.291+15.3268+153.029+15.6124C153.767+15.8981+154.418+16.3024+154.98+16.8253C155.543+17.3483+155.98+17.9591+156.292+18.6578C156.604+19.3566+156.76+20.0883+156.76+20.8529C156.76+21.8637+156.49+22.8085+155.949+23.6874C155.409+24.5663+154.671+25.2584+153.734+25.7638C152.798+26.2692+151.781+26.5219+150.682+26.5219C149.566+26.5219+148.538+26.2714+147.598+25.7704C146.657+25.2694+145.912+24.5817+145.363+23.7072C144.814+22.8327+144.539+21.8812+144.539+20.8529ZM147.426+20.7738C147.426+21.5385+147.503+22.2416+147.657+22.8832C147.811+23.5248+148.033+24.0719+148.323+24.5245C148.613+24.9772+148.958+25.3265+149.358+25.5726C149.757+25.8187+150.195+25.9418+150.669+25.9418C151.135+25.9418+151.57+25.8165+151.974+25.5661C152.379+25.3156+152.722+24.9684+153.003+24.5245C153.284+24.0807+153.502+23.5336+153.655+22.8832C153.809+22.2328+153.886+21.5297+153.886+20.7738C153.886+19.7631+153.752+18.8666+153.484+18.0844C153.216+17.3021+152.838+16.6957+152.35+16.265C151.862+15.8344+151.298+15.619+150.656+15.619C149.681+15.619+148.898+16.0936+148.309+17.0429C147.721+17.9921+147.426+19.2357+147.426+20.7738ZM148.441+25.7704C148.019+25.4364+147.732+25.1881+147.578+25.0255C147.424+24.8629+147.259+24.6454+147.083+24.3729C146.521+23.4589+146.24+22.2811+146.24+20.8397C146.24+18.4491+147.053+16.7704+148.679+15.8036C147.94+16.0761+147.292+16.4716+146.734+16.9901C146.176+17.5087+145.745+18.0975+145.442+18.7567C145.139+19.4159+144.987+20.1146+144.987+20.8529C144.987+21.5736+145.137+22.268+145.435+22.9359C145.734+23.6039+146.152+24.1796+146.688+24.663C146.978+24.9003+147.211+25.0761+147.387+25.1903C147.562+25.3046+147.914+25.4979+148.441+25.7704ZM152.001+25.9813C153.161+25.4716+154.046+24.775+154.657+23.8917C155.268+23.0084+155.574+21.9955+155.574+20.8529C155.574+19.684+155.277+18.6425+154.684+17.7284C154.09+16.8143+153.302+16.1683+152.317+15.7904C153.662+16.7748+154.334+18.4491+154.334+20.8134C154.334+22.0087+154.165+23.0062+153.827+23.806C153.488+24.6058+152.95+25.2782+152.212+25.8231L152.001+25.9813Z" vectornator:shadowOpacity="1"/>
<path stroke="#3ba7bb" vectornator:shadowColor="#000000" vectornator:shadowOffset="2" stroke-width="0.2" fill="#3ba7bb" stroke-linecap="round" vectornator:shadowAngle="0.703028" stroke-linejoin="miter" opacity="1" vectornator:shadowRadius="1" d="M161.177+22.8964C160.843+23.2304+160.621+23.483+160.511+23.6544C160.401+23.8258+160.346+24.0214+160.346+24.2411C160.346+24.6454+160.627+24.8871+161.19+24.9662C161.471+25.0014+161.884+25.0189+162.429+25.0189L164.934+25.0189C166.279+25.0189+167.237+25.1552+167.808+25.4276C168.203+25.621+168.546+25.8781+168.836+26.1989C169.126+26.5197+169.348+26.8866+169.502+27.2997C169.656+27.7128+169.733+28.1566+169.733+28.6312C169.733+29.5892+169.465+30.444+168.929+31.1954C168.392+31.9469+167.634+32.5292+166.654+32.9423C165.674+33.3554+164.569+33.5619+163.339+33.5619C161.678+33.5619+160.337+33.2367+159.318+32.5863C158.298+31.9359+157.788+31.0834+157.788+30.0287C157.788+29.475+157.929+28.9762+158.21+28.5324C158.492+28.0885+158.962+27.6205+159.621+27.1283C159.313+26.8383+159.1+26.5768+158.982+26.3439C158.863+26.111+158.804+25.8451+158.804+25.5463C158.804+25.2562+158.85+24.9926+158.942+24.7553C159.034+24.518+159.21+24.2543+159.469+23.9642C159.729+23.6742+160.104+23.3095+160.597+22.87L160.807+22.6854C160.06+22.2548+159.513+21.767+159.166+21.2221C158.819+20.6771+158.645+20.0443+158.645+19.3236C158.645+18.559+158.843+17.869+159.239+17.2538C159.634+16.6386+160.19+16.1508+160.906+15.7904C161.623+15.4301+162.464+15.2235+163.431+15.1708C163.633+14.2831+163.925+13.6459+164.308+13.2592C164.69+12.8724+165.206+12.6791+165.857+12.6791C166.243+12.6791+166.615+12.756+166.971+12.9098C167.327+13.0636+167.61+13.268+167.821+13.5228C168.032+13.7777+168.138+14.0502+168.138+14.3402C168.138+14.6215+168.047+14.8566+167.867+15.0455C167.687+15.2345+167.465+15.329+167.202+15.329C166.999+15.329+166.802+15.2675+166.608+15.1444C166.415+15.0214+166.265+14.8676+166.16+14.683L165.962+14.3007C165.743+13.8788+165.448+13.6679+165.079+13.6679C164.464+13.6679+164.064+14.1688+163.879+15.1708C164.574+15.1972+165.209+15.3202+165.784+15.5399C166.36+15.7597+166.861+16.0475+167.287+16.4035C167.713+16.7594+168.041+17.1813+168.269+17.6691C168.498+18.1569+168.612+18.682+168.612+19.2445C168.612+19.9916+168.39+20.6991+167.946+21.3671C167.503+22.035+166.911+22.5624+166.173+22.9491C165.435+23.3358+164.631+23.5292+163.761+23.5292C162.97+23.5292+162.108+23.3182+161.177+22.8964ZM165.962+19.1918C165.962+18.058+165.76+17.1703+165.356+16.5287C164.952+15.8871+164.402+15.5663+163.708+15.5663C162.978+15.5663+162.396+15.9091+161.961+16.5946C161.526+17.2802+161.308+18.1942+161.308+19.3368C161.308+20.4442+161.522+21.3319+161.948+21.9999C162.374+22.6679+162.939+23.0018+163.642+23.0018C164.363+23.0018+164.93+22.6591+165.343+21.9735C165.756+21.288+165.962+20.3607+165.962+19.1918ZM160.161+27.4843C159.388+28.161+159.001+28.9169+159.001+29.7518C159.001+30.3671+159.192+30.923+159.575+31.4196C159.957+31.9161+160.493+32.3029+161.183+32.5797C161.873+32.8566+162.653+32.995+163.523+32.995C164.2+32.995+164.839+32.9027+165.441+32.7182C166.044+32.5336+166.566+32.2809+167.01+31.9601C167.454+31.6393+167.797+31.2702+168.039+30.8527C168.28+30.4352+168.401+29.9848+168.401+29.5014C168.401+28.9476+168.223+28.5104+167.867+28.1896C167.511+27.8688+167.026+27.704+166.41+27.6952L165.395+27.6557L165.066+27.6557L162.495+27.6557C162.064+27.6557+161.664+27.6425+161.295+27.6161C160.891+27.6073+160.513+27.5634+160.161+27.4843ZM168.48+30.7011C168.893+30.1122+169.1+29.5277+169.1+28.9476C169.1+28.1918+168.885+27.559+168.454+27.0492C168.129+26.6625+167.749+26.3922+167.314+26.2384C166.879+26.0846+166.283+26.0077+165.527+26.0077L163.708+25.9945L162.205+25.9813C161.555+25.9813+161.045+25.944+160.676+25.8693C160.306+25.7946+160.052+25.6693+159.911+25.4935C159.77+25.3178+159.7+25.0629+159.7+24.7289C159.7+24.5795+159.753+24.3685+159.858+24.0961C159.595+24.3861+159.421+24.6234+159.337+24.808C159.254+24.9926+159.212+25.2167+159.212+25.4804C159.212+25.8231+159.294+26.122+159.456+26.3768C159.619+26.6317+159.858+26.8295+160.175+26.9701C160.368+27.0492+160.636+27.1019+160.979+27.1283C161.322+27.1547+161.884+27.1679+162.666+27.1679L164.42+27.181C165.545+27.181+166.329+27.2074+166.773+27.2601C167.217+27.3129+167.566+27.4271+167.821+27.6029C168.463+28.016+168.784+28.6093+168.784+29.3827C168.784+29.7343+168.682+30.1737+168.48+30.7011ZM165.145+22.7777C165.918+22.4262+166.503+21.9625+166.898+21.3869C167.294+20.8112+167.492+20.1366+167.492+19.3632C167.492+18.537+167.278+17.8053+166.852+17.1681C166.426+16.5309+165.861+16.0761+165.158+15.8036C165.598+16.1991+165.91+16.6605+166.094+17.1879C166.279+17.7152+166.371+18.37+166.371+19.1522C166.371+19.996+166.276+20.6947+166.087+21.2484C165.899+21.8021+165.584+22.3119+165.145+22.7777ZM161.585+22.6986C160.645+21.8549+160.175+20.7387+160.175+19.35C160.175+17.8558+160.79+16.6474+162.02+15.7245C161.115+15.9882+160.399+16.4452+159.871+17.0956C159.344+17.746+159.08+18.4931+159.08+19.3368C159.08+20.0487+159.296+20.6925+159.726+21.2682C160.157+21.8439+160.777+22.3207+161.585+22.6986ZM165.224+13.2724C165.523+13.3778+165.751+13.5009+165.91+13.6415C166.068+13.7821+166.217+13.9887+166.358+14.2611C166.507+14.4984+166.624+14.6588+166.707+14.7423C166.791+14.8258+166.894+14.8676+167.017+14.8676C167.263+14.8676+167.386+14.7401+167.386+14.4852C167.386+14.2831+167.3+14.0853+167.129+13.892C166.958+13.6986+166.736+13.5404+166.463+13.4174C166.191+13.2943+165.91+13.2328+165.619+13.2328C165.532+13.2328+165.4+13.246+165.224+13.2724Z" vectornator:shadowOpacity="1"/>
<path stroke="#3ba7bb" vectornator:shadowColor="#000000" vectornator:shadowOffset="2" stroke-width="0.2" fill="#3ba7bb" stroke-linecap="round" vectornator:shadowAngle="0.703028" stroke-linejoin="miter" opacity="1" vectornator:shadowRadius="1" d="M170.511+20.8529C170.511+19.8334+170.785+18.8864+171.335+18.0119C171.884+17.1373+172.627+16.4474+173.563+15.942C174.499+15.4367+175.525+15.184+176.641+15.184C177.476+15.184+178.263+15.3268+179.001+15.6124C179.739+15.8981+180.389+16.3024+180.952+16.8253C181.514+17.3483+181.952+17.9591+182.264+18.6578C182.576+19.3566+182.732+20.0883+182.732+20.8529C182.732+21.8637+182.462+22.8085+181.921+23.6874C181.38+24.5663+180.642+25.2584+179.706+25.7638C178.77+26.2692+177.753+26.5219+176.654+26.5219C175.538+26.5219+174.51+26.2714+173.569+25.7704C172.629+25.2694+171.884+24.5817+171.335+23.7072C170.785+22.8327+170.511+21.8812+170.511+20.8529ZM173.398+20.7738C173.398+21.5385+173.475+22.2416+173.629+22.8832C173.782+23.5248+174.004+24.0719+174.294+24.5245C174.584+24.9772+174.929+25.3265+175.329+25.5726C175.729+25.8187+176.166+25.9418+176.641+25.9418C177.107+25.9418+177.542+25.8165+177.946+25.5661C178.35+25.3156+178.693+24.9684+178.974+24.5245C179.256+24.0807+179.473+23.5336+179.627+22.8832C179.781+22.2328+179.858+21.5297+179.858+20.7738C179.858+19.7631+179.724+18.8666+179.456+18.0844C179.188+17.3021+178.81+16.6957+178.322+16.265C177.834+15.8344+177.269+15.619+176.628+15.619C175.652+15.619+174.87+16.0936+174.281+17.0429C173.692+17.9921+173.398+19.2357+173.398+20.7738ZM174.413+25.7704C173.991+25.4364+173.703+25.1881+173.549+25.0255C173.396+24.8629+173.231+24.6454+173.055+24.3729C172.493+23.4589+172.211+22.2811+172.211+20.8397C172.211+18.4491+173.024+16.7704+174.65+15.8036C173.912+16.0761+173.264+16.4716+172.706+16.9901C172.148+17.5087+171.717+18.0975+171.414+18.7567C171.11+19.4159+170.959+20.1146+170.959+20.8529C170.959+21.5736+171.108+22.268+171.407+22.9359C171.706+23.6039+172.123+24.1796+172.66+24.663C172.95+24.9003+173.182+25.0761+173.358+25.1903C173.534+25.3046+173.886+25.4979+174.413+25.7704ZM177.973+25.9813C179.133+25.4716+180.018+24.775+180.629+23.8917C181.24+23.0084+181.545+21.9955+181.545+20.8529C181.545+19.684+181.249+18.6425+180.655+17.7284C180.062+16.8143+179.273+16.1683+178.289+15.7904C179.634+16.7748+180.306+18.4491+180.306+20.8134C180.306+22.0087+180.137+23.0062+179.798+23.806C179.46+24.6058+178.922+25.2782+178.183+25.8231L177.973+25.9813Z" vectornator:shadowOpacity="1"/>
</g>
</g>
</svg>
